<svg xmlns="http://www.w3.org/2000/svg" width="13" height="13" viewBox="0 0 13 13">
     <path fill="currentColor" d="M616.075 36.95c.828 0 1.607-.156 2.338-.469.73-.312 1.367-.74 1.91-1.283.543-.543.97-1.18 1.283-1.91.313-.73.469-1.51.469-2.338 0-.828-.156-1.607-.469-2.338-.312-.73-.74-1.367-1.283-1.91-.543-.543-1.18-.97-1.91-1.283-.73-.313-1.51-.469-2.338-.469-.828 0-1.607.156-2.338.469-.73.312-1.367.74-1.91 1.283-.543.543-.97 1.18-1.283 1.91-.313.73-.469 1.51-.469 2.338 0 .828.156 1.607.469 2.338.312.73.74 1.367 1.283 1.91.543.543 1.18.97 1.91 1.283.73.313 1.51.469 2.338.469zm0-.738c-.727 0-1.408-.139-2.045-.416-.637-.278-1.191-.655-1.664-1.131-.473-.477-.848-1.033-1.125-1.67s-.416-1.318-.416-2.045c0-.727.139-1.408.416-2.045.277-.637.652-1.191 1.125-1.664.473-.473 1.027-.848 1.664-1.125s1.318-.416 2.045-.416c.727 0 1.408.139 2.045.416.637.277 1.191.652 1.664 1.125.473.473.848 1.027 1.125 1.664s.416 1.318.416 2.045c0 .727-.139 1.408-.416 2.045-.277.637-.652 1.193-1.125 1.67-.473.476-1.027.853-1.664 1.13-.637.278-1.318.417-2.045.417zm.504-2.871c.047 0 .094-.01.14-.03.047-.02.09-.045.13-.076l2.214-2.273-2.215-2.274c-.078-.078-.168-.117-.27-.117-.1 0-.19.04-.269.117-.07.07-.105.158-.105.264 0 .105.035.193.105.264l1.36 1.359h-4.219c-.11 0-.2.035-.27.105-.07.07-.105.16-.105.27 0 .102.035.19.105.264.07.074.16.111.27.111h4.242l-1.383 1.371c-.07.078-.105.168-.105.27 0 .101.035.191.105.27.04.03.082.056.13.075.046.02.093.03.14.03z" transform="translate(-811 -2022) translate(201 1998)"/>
</svg>
